/* XPM */
static char *d8986f107ea140d7a698cada8a78d0959DHvPBr5yuZmbSB3[] = {
/* columns rows colors chars-per-pixel */
"16 16 40 1 ",
"  c #9CCB6C",
". c #97C667",
"X c #93C263",
"o c #92C162",
"O c #90BF60",
"+ c #8DBC5D",
"@ c #8AB95A",
"# c #7FBF55",
"$ c #7EBE54",
"% c #83B253",
"& c #81B051",
"* c #76B64C",
"= c #75B54B",
"- c #74B44A",
"; c #73B349",
": c #71B147",
"> c #70B046",
", c #B9855C",
"< c #6FAF45",
"1 c #6DAD43",
"2 c #6CAC42",
"3 c #6BAB41",
"4 c #6AAA40",
"5 c #69A93F",
"6 c #68A83E",
"7 c #67A73D",
"8 c gray53",
"9 c #66A63C",
"0 c #64A43A",
"q c #62A238",
"w c #61A137",
"e c #60A036",
"r c #5F9F35",
"t c #57972D",
"y c #966C4A",
"u c #509026",
"i c #6C6C6C",
"p c #745844",
"a c #79553A",
"s c #593D29",
/* pixels */
"-*;99<r2$*475wu1",
"=2@&%s6qrXO;w273",
"+s 05s>s-#o.stes",
"siss:sssrs1sassa",
"yay,syaasssiaysa",
"asyyaysssaasaaa,",
",aaa8aa,,a,,ayay",
"aa,,yyaaysyyaayy",
"yaayayasayyaaasa",
"aysaassaaaaa,,ay",
"aya,,a,ys,,syy8a",
"yaayy,ayiyyasyas",
"asyayy,aaaaaaa,,",
"ayaapayyas,sa,yy",
"yas,asas,,ayaayy",
"ya,yya8ayyaayyas"
};
