/* XPM */
static char *ddd18099a6464f75b3beb529aaf428ba62Pfj9s2WGj3MSTw[] = {
/* columns rows colors chars-per-pixel */
"16 16 18 1 ",
"  c white",
". c #D8D8D8",
"X c gray71",
"o c #C29D62",
"O c #B8945F",
"+ c #AF8F55",
"@ c #9F844D",
"# c #967441",
"$ c #7E6237",
"% c #67502C",
"& c #733920",
"* c #4B2B18",
"= c #41230E",
"- c #382116",
"; c #281E0B",
": c #1B160D",
"> c #19140C",
", c #110E08",
/* pixels */
">+Ooo-&**&-oooO>",
">O++#@-**-++OO@>",
">OOO+O+--@@++OO>",
">$$##$%::$%===$>",
">o@oooo**oo;+;@>",
">OO=@+@--++;;;O>",
">@+;+++--OOXXX@>",
">%$;#$%::%$ ..$>",
">oo;++o**oo ..O>",
">+...O+--@+@..@>",
">OX. @@--+++ .O>",
">%$##$%,,$#$$.%>",
">@OooOO**oo@o o>",
">+OO@@+--OO+O++>",
">@@+O+@--O+@@@@>",
":$$%%$#>:$%$%%%:"
};
